<svg version="1.1" id="Layer_1" xmlns="http://www.w3.org/2000/svg" xmlns:xlink="http://www.w3.org/1999/xlink" viewBox="0 0 512 512" xml:space="preserve" width="64px" height="64px" fill="#000000"><g id="SVGRepo_bgCarrier" stroke-width="0"></g><g id="SVGRepo_tracerCarrier" stroke-linecap="round" stroke-linejoin="round"></g><g id="SVGRepo_iconCarrier"> <polygon style="fill:#FFC222;" points="340.512,150.983 271.675,150.983 256.001,161.432 235.101,240.336 256.001,320.005 340.512,320.005 "></polygon> <polygon style="fill:#FEDF77;" points="171.49,150.983 171.49,320.005 256.001,320.005 256.001,161.432 240.325,150.983 "></polygon> <rect x="240.327" y="150.984" style="fill:#FF9500;" width="31.348" height="62.164"></rect> <path style="fill:#027ACD;" d="M102.374,272.634V166.848l123.338,103.523l20.154-24.012L102.697,126.191 c-13.523-11.166-30.981-7.529-44.021-7.529l0,0l-15.674,166.32v227.017h59.373v-31.348H74.349V313.426 C90.738,307.124,102.374,291.243,102.374,272.634z"></path> <path style="fill:#3EAFF5;" d="M14.978,162.361v110.274c0,24.134,19.565,43.699,43.699,43.699l0,0V118.663l0,0 C34.542,118.663,14.978,138.227,14.978,162.361z"></path> <path style="fill:#FEE3B5;" d="M112.049,44.256l-74.274-20.9l20.9,103.432c29.999,0,54.318-24.319,54.318-54.318V54.318 C112.995,50.878,112.66,47.518,112.049,44.256z"></path> <path style="fill:#FFF3D8;" d="M5.303,44.256c-0.611,3.262-0.946,6.623-0.946,10.063v18.15c0,29.999,24.319,54.318,54.318,54.318 V23.356L5.303,44.256z"></path> <polygon style="fill:#027ACD;" points="112.995,20.899 112.995,0 58.675,0 37.775,27.574 58.675,52.247 156.597,52.247 156.597,20.899 "></polygon> <rect x="4.357" style="fill:#3EAFF5;" width="54.318" height="52.247"></rect> <path style="fill:#D61322;" d="M453.325,118.663L453.325,118.663l-20.9,98.835l5.226,67.485v195.669h-28.024V512h59.373V313.425 c16.388-6.302,28.023-22.183,28.023-40.79V162.361C497.023,138.227,477.459,118.663,453.325,118.663z"></path> <path style="fill:#EC2533;" d="M453.325,118.663c-24.134,0-43.699,19.565-43.699,43.699v110.274 c0,24.134,19.564,43.699,43.699,43.699l0,0V118.663L453.325,118.663z"></path> <path style="fill:#FEE3B5;" d="M453.325,0l-20.9,63.394l20.9,63.394c29.999,0,54.318-24.319,54.318-54.318V54.318 C507.643,24.319,483.324,0,453.325,0z"></path> <path style="fill:#FFF3D8;" d="M399.006,54.318v18.15c0,29.999,24.319,54.318,54.318,54.318V0 C423.326,0,399.006,24.319,399.006,54.318z"></path> </g></svg>