<svg height="64px" width="64px" version="1.1" id="Layer_1" xmlns="http://www.w3.org/2000/svg" xmlns:xlink="http://www.w3.org/1999/xlink" viewBox="0 0 512 512" xml:space="preserve" fill="#000000"><g id="SVGRepo_bgCarrier" stroke-width="0"></g><g id="SVGRepo_tracerCarrier" stroke-linecap="round" stroke-linejoin="round"></g><g id="SVGRepo_iconCarrier"> <path style="fill:#74DBC9;" d="M315.733,238.933h-70.746L195.254,96.838c-5.982-17.089-22.165-28.572-40.271-28.572H76.8 c-14.116,0-25.6,11.484-25.6,25.6v145.067H25.6c-14.116,0-25.6,11.484-25.6,25.6V384c0,4.713,3.821,8.533,8.533,8.533H332.8 c4.713,0,8.533-3.821,8.533-8.533V264.533C341.333,250.417,329.85,238.933,315.733,238.933z"></path> <path style="fill:#6AC8B7;" d="M17.067,384V264.533c0-14.116,11.484-25.6,25.6-25.6H25.6c-14.116,0-25.6,11.484-25.6,25.6V384 c0,4.713,3.821,8.533,8.533,8.533H25.6C20.887,392.533,17.067,388.713,17.067,384z"></path> <path style="fill:#9B9DA1;" d="M221.388,248.998l-50.297-143.702c-2.393-6.836-8.866-11.429-16.109-11.429H85.333 c-4.713,0-8.533,3.821-8.533,8.533v256c0,4.713,3.821,8.533,8.533,8.533h128c4.713,0,8.533-3.821,8.533-8.533V251.818 C221.867,250.858,221.705,249.904,221.388,248.998z"></path> <path style="fill:#FDD042;" d="M384,341.333H8.533c-4.713,0-8.533,3.821-8.533,8.533V384c0,4.713,3.821,8.533,8.533,8.533H384 c4.713,0,8.533-3.821,8.533-8.533v-34.133C392.533,345.154,388.713,341.333,384,341.333z"></path> <path style="fill:#F2C127;" d="M17.067,384v-34.133c0-4.713,3.821-8.533,8.533-8.533H8.533c-4.713,0-8.533,3.821-8.533,8.533V384 c0,4.713,3.821,8.533,8.533,8.533H25.6C20.887,392.533,17.067,388.713,17.067,384z"></path> <circle style="fill:#606268;" cx="256" cy="392.533" r="51.2"></circle> <circle style="fill:#EBEBEC;" cx="256" cy="392.533" r="25.6"></circle> <circle style="fill:#606268;" cx="76.8" cy="392.533" r="51.2"></circle> <circle style="fill:#EBEBEC;" cx="76.8" cy="392.533" r="25.6"></circle> <path style="fill:#E5563C;" d="M503.467,341.333h-102.4V153.6c0-4.713-3.821-8.533-8.533-8.533h-17.067 c-14.115,0-25.6,11.485-25.6,25.6V384c0,4.713,3.821,8.533,8.533,8.533h128c14.115,0,25.6-11.485,25.6-25.6v-17.067 C512,345.154,508.179,341.333,503.467,341.333z"></path> <path style="fill:#CF442B;" d="M503.467,375.467H371.2c-2.356,0-4.267-1.91-4.267-4.267V153.6c0-2.585,0.386-5.077,1.099-7.428 c-10.5,3.194-18.165,12.964-18.165,24.495V384c0,4.713,3.821,8.533,8.533,8.533h128c11.531,0,21.301-7.665,24.495-18.165 C508.544,375.081,506.051,375.467,503.467,375.467z"></path> <path style="fill:#FDD042;" d="M136.533,238.933h-17.067V204.8c0-14.116-11.484-25.6-25.6-25.6h-8.533 c-4.713,0-8.533,3.821-8.533,8.533V281.6c0,4.713,3.821,8.533,8.533,8.533H153.6c4.713,0,8.533-3.821,8.533-8.533v-17.067 C162.133,250.417,150.65,238.933,136.533,238.933z"></path> <path style="fill:#606268;" d="M220.828,247.397l-7.491-21.404l-42.67-18.287v-11.44c0-4.713-3.821-8.533-8.533-8.533 c-4.713,0-8.533,3.821-8.533,8.533v16.983c0,0.029,0,0.058,0,0.085V230.4c0,4.713,3.821,8.533,8.533,8.533 c4.713,0,8.533-3.821,8.533-8.533v-4.126l47.839,20.502C219.265,247.102,220.046,247.301,220.828,247.397z"></path> <path style="fill:#FDD042;" d="M477.867,341.333H409.6c-4.713,0-8.533-3.821-8.533-8.533v-68.267c0-4.713,3.821-8.533,8.533-8.533 h68.267c4.713,0,8.533,3.821,8.533,8.533V332.8C486.4,337.513,482.579,341.333,477.867,341.333z"></path> <path style="fill:#F2C127;" d="M418.133,332.8v-68.267c0-4.713,3.821-8.533,8.533-8.533H409.6c-4.713,0-8.533,3.821-8.533,8.533 V332.8c0,4.713,3.821,8.533,8.533,8.533h17.067C421.954,341.333,418.133,337.513,418.133,332.8z"></path> <path style="fill:#FDE49D;" d="M460.8,256h-51.2c-4.713,0-8.533-3.821-8.533-8.533v-51.2c0-4.713,3.821-8.533,8.533-8.533h51.2 c4.713,0,8.533,3.821,8.533,8.533v51.2C469.333,252.179,465.513,256,460.8,256z"></path> <path style="fill:#FDD968;" d="M409.6,247.467v-51.2c0-4.713,3.821-8.533,8.533-8.533H409.6c-4.713,0-8.533,3.821-8.533,8.533v51.2 c0,4.713,3.821,8.533,8.533,8.533h8.533C413.421,256,409.6,252.179,409.6,247.467z"></path> <g> <path style="fill:#606268;" d="M443.733,221.867h-17.067c-4.713,0-8.533-3.821-8.533-8.533c0-4.713,3.821-8.533,8.533-8.533h17.067 c4.713,0,8.533,3.821,8.533,8.533C452.267,218.046,448.446,221.867,443.733,221.867z"></path> <path style="fill:#606268;" d="M460.8,307.2h-34.133c-4.713,0-8.533-3.821-8.533-8.533s3.821-8.533,8.533-8.533H460.8 c4.713,0,8.533,3.821,8.533,8.533S465.513,307.2,460.8,307.2z"></path> </g> </g></svg>