<svg version="1.1" id="Layer_1" xmlns="http://www.w3.org/2000/svg" xmlns:xlink="http://www.w3.org/1999/xlink" viewBox="0 0 435 435" xml:space="preserve" width="64px" height="64px" fill="#000000"><g id="SVGRepo_bgCarrier" stroke-width="0"></g><g id="SVGRepo_tracerCarrier" stroke-linecap="round" stroke-linejoin="round"></g><g id="SVGRepo_iconCarrier"> <g id="XMLID_639_"> <path id="XMLID_642_" style="fill:#EEAA66;" d="M237.5,70V30c0-16.568-13.432-30-30-30s-30,13.432-30,30v40H237.5z"></path> <path id="XMLID_643_" style="fill:#E6972A;" d="M177.5,30v40h30V0C190.932,0,177.5,13.432,177.5,30z"></path> <path id="XMLID_644_" style="fill:#E9A440;" d="M207.5,0v70h30V30C237.5,13.432,224.068,0,207.5,0z"></path> <rect id="XMLID_647_" x="87.5" y="60" style="fill:#F3F3F2;" width="240" height="70"></rect> <rect id="XMLID_650_" x="287.5" y="60" style="fill:#F8F8F9;" width="40" height="70"></rect> <rect id="XMLID_651_" x="87.5" y="60" style="fill:#D8D8DA;" width="120" height="70"></rect> <rect id="XMLID_652_" x="87.5" y="60" style="fill:#C6C5CA;" width="40" height="70"></rect> <rect id="XMLID_653_" x="57.5" y="120" style="fill:#98C8ED;" width="300" height="100"></rect> <polygon id="XMLID_656_" style="fill:#D1E3FA;" points="185.931,120 85.931,220 199.069,220 299.068,120 "></polygon> <path id="XMLID_657_" style="fill:#D8D8DA;" d="M217.5,170l-180,40c0,0,20,150,90,210h180c70-60,90-210,90-210L217.5,170z"></path> <path id="XMLID_658_" style="fill:#EDEDED;" d="M217.5,170v250h90c70-60,90-210,90-210L217.5,170z"></path> <path id="XMLID_659_" style="fill:#98C8ED;" d="M382.5,390c0,8.271-6.729,15-15,15s-15-6.729-15-15h-30c0,8.271-6.729,15-15,15 s-15-6.729-15-15h-30c0,8.271-6.729,15-15,15s-15-6.729-15-15h-30c0,8.271-6.729,15-15,15s-15-6.729-15-15h-30 c0,8.271-6.729,15-15,15s-15-6.729-15-15h-30c0,8.271-6.729,15-15,15s-15-6.729-15-15h-30c0,24.813,20.187,45,45,45 c11.517,0,22.032-4.353,30-11.495c7.968,7.142,18.483,11.495,30,11.495s22.032-4.353,30-11.495 c7.968,7.142,18.483,11.495,30,11.495s22.032-4.353,30-11.495c7.968,7.142,18.483,11.495,30,11.495s22.032-4.353,30-11.495 c7.968,7.142,18.483,11.495,30,11.495s22.032-4.353,30-11.495c7.968,7.142,18.483,11.495,30,11.495c24.813,0,45-20.187,45-45H382.5 z"></path> <path id="XMLID_660_" style="fill:#C6C5CA;" d="M37.5,210c0,0,12.018,90.072,50,158.541V198.889L37.5,210z"></path> <path id="XMLID_663_" style="fill:#F8F8F9;" d="M397.5,210c0,0-12.018,90.072-50,158.541V198.889L397.5,210z"></path> </g> </g></svg>