<svg width="64px" height="64px" viewBox="0 0 1024 1024" class="icon" version="1.1" xmlns="http://www.w3.org/2000/svg" fill="#000000"><g id="SVGRepo_bgCarrier" stroke-width="0"></g><g id="SVGRepo_tracerCarrier" stroke-linecap="round" stroke-linejoin="round"></g><g id="SVGRepo_iconCarrier"><path d="M324.754286 731.428571h163.84v70.217143H324.754286z" fill="#7E8495"></path><path d="M488.594286 811.885714H324.754286c-5.851429 0-10.24-4.388571-10.24-10.24V731.428571c0-5.851429 4.388571-10.24 10.24-10.24h163.84c5.851429 0 10.24 4.388571 10.24 10.24v70.217143c0 5.851429-5.851429 10.24-10.24 10.24z m-153.6-20.48h143.36v-49.737143h-143.36v49.737143z" fill="#141515"></path><path d="M406.674286 797.257143c-5.851429 0-10.24-4.388571-10.24-10.24v-54.125714c0-5.851429 4.388571-10.24 10.24-10.24 5.851429 0 10.24 4.388571 10.24 10.24v54.125714c0 5.851429-4.388571 10.24-10.24 10.24z" fill="#141515"></path><path d="M182.857143 498.834286h84.845714l17.554286-89.234286c7.314286-33.645714 38.034286-62.902857 73.142857-64.365714h68.754286V672.914286H95.085714v-87.771429c0-46.811429 39.497143-86.308571 87.771429-86.308571z" fill="#71A44A"></path><path d="M437.394286 683.154286H84.845714V585.142857c0-54.125714 43.885714-98.011429 98.011429-98.011428h76.068571l16.091429-80.457143c7.314286-38.034286 43.885714-70.217143 81.92-73.142857H438.857143v349.622857zM105.325714 662.674286h310.125715v-307.2h-58.514286c-29.257143 2.925714-57.051429 26.331429-62.902857 57.051428l-19.017143 96.548572h-93.622857c-42.422857 0-76.068571 35.108571-76.068572 76.068571v77.531429z" fill="#141515"></path><path d="M454.948571 178.468571h531.017143V672.914286H454.948571z" fill="#EC748B"></path><path d="M985.965714 683.154286H454.948571c-5.851429 0-10.24-4.388571-10.24-10.24V178.468571c0-5.851429 4.388571-10.24 10.24-10.24h531.017143c5.851429 0 10.24 4.388571 10.24 10.24V672.914286c0 5.851429-4.388571 10.24-10.24 10.24z m-520.777143-20.48h510.537143V188.708571H465.188571v473.965715z" fill="#141515"></path><path d="M454.948571 178.468571h531.017143V219.428571H454.948571z" fill="#FCDD10"></path><path d="M985.965714 229.668571H454.948571c-5.851429 0-10.24-4.388571-10.24-10.24v-40.96c0-5.851429 4.388571-10.24 10.24-10.24h531.017143c5.851429 0 10.24 4.388571 10.24 10.24V219.428571c0 5.851429-4.388571 10.24-10.24 10.24z m-520.777143-20.48h510.537143v-20.48H465.188571v20.48z" fill="#141515"></path><path d="M64.365714 672.914286h920.137143v59.977143H64.365714z" fill="#6E7377"></path><path d="M985.965714 744.594286h-921.6c-5.851429 0-10.24-4.388571-10.24-10.24V672.914286c0-5.851429 4.388571-10.24 10.24-10.24h920.137143c5.851429 0 10.24 4.388571 10.24 10.24v59.977143c1.462857 5.851429-2.925714 11.702857-8.777143 11.702857zM74.605714 722.651429h899.657143v-39.497143H74.605714v39.497143z" fill="#141515"></path><path d="M296.96 503.222857l8.777143-51.2c4.388571-23.405714 23.405714-42.422857 45.348571-43.885714h43.885715v95.085714h-98.011429z" fill="#90CED9"></path><path d="M403.748571 513.462857h-119.954285l11.702857-62.902857c4.388571-27.794286 27.794286-51.2 54.125714-52.662857h54.125714v115.565714z m-95.085714-20.48h74.605714v-74.605714h-29.257142l-2.925715-10.24v10.24c-17.554286 1.462857-33.645714 17.554286-36.571428 35.108571l-5.851429 39.497143z" fill="#141515"></path><path d="M330.605714 352.548571c11.702857-84.845714 43.885714-149.211429 95.085715-150.674285v143.36h-65.828572-2.925714c-8.777143 0-17.554286 2.925714-26.331429 7.314285z" fill="#BFD7AB"></path><path d="M318.902857 370.102857L321.828571 351.085714c14.628571-100.937143 52.662857-157.988571 105.325715-159.451428h10.24v163.84h-80.457143c-7.314286 0-14.628571 2.925714-21.942857 5.851428l-16.091429 8.777143z m98.011429-156.525714c-33.645714 8.777143-59.977143 52.662857-71.68 122.88 4.388571-1.462857 7.314286-1.462857 11.702857-1.462857h58.514286v-121.417143zM561.737143 634.88c-5.851429 0-10.24-4.388571-10.24-10.24V272.091429c0-5.851429 4.388571-10.24 10.24-10.24 5.851429 0 10.24 4.388571 10.24 10.24v352.548571c0 5.851429-4.388571 10.24-10.24 10.24zM722.651429 634.88c-5.851429 0-10.24-4.388571-10.24-10.24V272.091429c0-5.851429 4.388571-10.24 10.24-10.24 5.851429 0 10.24 4.388571 10.24 10.24v352.548571c0 5.851429-4.388571 10.24-10.24 10.24z" fill="#141515"></path><path d="M883.565714 634.88c-5.851429 0-10.24-4.388571-10.24-10.24V272.091429c0-5.851429 4.388571-10.24 10.24-10.24 5.851429 0 10.24 4.388571 10.24 10.24v352.548571c0 5.851429-4.388571 10.24-10.24 10.24z" fill="#141515"></path><path d="M296.96 665.6c-5.851429 0-10.24-4.388571-10.24-10.24v-102.4c0-5.851429 4.388571-10.24 10.24-10.24s10.24 4.388571 10.24 10.24v102.4c0 5.851429-4.388571 10.24-10.24 10.24z" fill="#141515"></path><path d="M102.4 586.605714H49.737143c-5.851429 0-10.24-4.388571-10.24-10.24 0-5.851429 4.388571-10.24 10.24-10.24H102.4c5.851429 0 10.24 4.388571 10.24 10.24 0 5.851429-4.388571 10.24-10.24 10.24z" fill="#141515"></path><path d="M102.4 618.788571H49.737143c-5.851429 0-10.24-4.388571-10.24-10.24s4.388571-10.24 10.24-10.24H102.4c5.851429 0 10.24 4.388571 10.24 10.24s-4.388571 10.24-10.24 10.24z" fill="#141515"></path><path d="M57.051429 634.88h64.365714c10.24 0 19.017143 8.777143 19.017143 19.017143v10.24c0 10.24-8.777143 19.017143-19.017143 19.017143H57.051429c-10.24 0-19.017143-8.777143-19.017143-19.017143v-10.24c0-10.24 8.777143-19.017143 19.017143-19.017143z" fill="#FFE638"></path><path d="M121.417143 693.394286H57.051429c-16.091429 0-29.257143-13.165714-29.257143-29.257143v-10.24c0-16.091429 13.165714-29.257143 29.257143-29.257143h64.365714c16.091429 0 29.257143 13.165714 29.257143 29.257143v10.24c0 16.091429-13.165714 29.257143-29.257143 29.257143z m-64.365714-48.274286c-4.388571 0-8.777143 4.388571-8.777143 8.777143v10.24c0 4.388571 4.388571 8.777143 8.777143 8.777143h64.365714c4.388571 0 8.777143-4.388571 8.777143-8.777143v-10.24c0-4.388571-4.388571-8.777143-8.777143-8.777143H57.051429z" fill="#141515"></path><path d="M200.411429 845.531429c43.885714 0 78.994286-35.108571 78.994285-78.994286 0-43.885714-35.108571-78.994286-78.994285-78.994286-43.885714 0-78.994286 35.108571-78.994286 78.994286 0 43.885714 36.571429 78.994286 78.994286 78.994286z" fill="#A1A69C"></path><path d="M200.411429 855.771429c-49.737143 0-89.234286-40.96-89.234286-89.234286 0-49.737143 40.96-89.234286 89.234286-89.234286 49.737143 0 89.234286 40.96 89.234285 89.234286 1.462857 49.737143-39.497143 89.234286-89.234285 89.234286z m0-157.988572c-38.034286 0-68.754286 30.72-68.754286 68.754286s30.72 68.754286 68.754286 68.754286 68.754286-30.72 68.754285-68.754286c1.462857-38.034286-30.72-68.754286-68.754285-68.754286z" fill="#141515"></path><path d="M200.411429 766.537143m-38.034286 0a38.034286 38.034286 0 1 0 76.068571 0 38.034286 38.034286 0 1 0-76.068571 0Z" fill="#DAD9B4"></path><path d="M200.411429 814.811429c-26.331429 0-48.274286-21.942857-48.274286-48.274286 0-26.331429 21.942857-48.274286 48.274286-48.274286 26.331429 0 48.274286 21.942857 48.274285 48.274286 0 26.331429-21.942857 48.274286-48.274285 48.274286z m0-76.068572c-14.628571 0-27.794286 11.702857-27.794286 27.794286 0 14.628571 11.702857 26.331429 27.794286 26.331428s26.331429-11.702857 26.331428-26.331428c1.462857-14.628571-10.24-27.794286-26.331428-27.794286z" fill="#141515"></path><path d="M669.988571 845.531429c43.885714 0 78.994286-35.108571 78.994286-78.994286 0-43.885714-35.108571-78.994286-78.994286-78.994286-43.885714 0-78.994286 35.108571-78.994285 78.994286 0 43.885714 35.108571 78.994286 78.994285 78.994286z" fill="#A1A69C"></path><path d="M669.988571 855.771429c-49.737143 0-89.234286-40.96-89.234285-89.234286 0-49.737143 40.96-89.234286 89.234285-89.234286 49.737143 0 89.234286 40.96 89.234286 89.234286 0 49.737143-39.497143 89.234286-89.234286 89.234286z m0-157.988572c-38.034286 0-68.754286 30.72-68.754285 68.754286s30.72 68.754286 68.754285 68.754286 68.754286-30.72 68.754286-68.754286-30.72-68.754286-68.754286-68.754286z" fill="#141515"></path><path d="M867.474286 845.531429c43.885714 0 78.994286-35.108571 78.994285-78.994286 0-43.885714-35.108571-78.994286-78.994285-78.994286-43.885714 0-78.994286 35.108571-78.994286 78.994286 0 43.885714 35.108571 78.994286 78.994286 78.994286z" fill="#A1A69C"></path><path d="M867.474286 855.771429c-49.737143 0-89.234286-40.96-89.234286-89.234286 0-49.737143 40.96-89.234286 89.234286-89.234286 49.737143 0 89.234286 40.96 89.234285 89.234286 0 49.737143-39.497143 89.234286-89.234285 89.234286z m0-157.988572c-38.034286 0-68.754286 30.72-68.754286 68.754286s30.72 68.754286 68.754286 68.754286S936.228571 804.571429 936.228571 766.537143s-30.72-68.754286-68.754285-68.754286z" fill="#141515"></path><path d="M669.988571 766.537143m-38.034285 0a38.034286 38.034286 0 1 0 76.068571 0 38.034286 38.034286 0 1 0-76.068571 0Z" fill="#DAD9B4"></path><path d="M669.988571 814.811429c-26.331429 0-48.274286-21.942857-48.274285-48.274286 0-26.331429 21.942857-48.274286 48.274285-48.274286 26.331429 0 48.274286 21.942857 48.274286 48.274286 0 26.331429-21.942857 48.274286-48.274286 48.274286z m0-76.068572c-14.628571 0-26.331429 11.702857-26.331428 27.794286 0 14.628571 11.702857 26.331429 26.331428 26.331428s26.331429-11.702857 26.331429-26.331428-11.702857-27.794286-26.331429-27.794286z" fill="#141515"></path><path d="M867.474286 766.537143m-38.034286 0a38.034286 38.034286 0 1 0 76.068571 0 38.034286 38.034286 0 1 0-76.068571 0Z" fill="#DAD9B4"></path><path d="M867.474286 814.811429c-26.331429 0-48.274286-21.942857-48.274286-48.274286 0-26.331429 21.942857-48.274286 48.274286-48.274286 26.331429 0 48.274286 21.942857 48.274285 48.274286 0 26.331429-21.942857 48.274286-48.274285 48.274286z m0-76.068572c-14.628571 0-26.331429 11.702857-26.331429 27.794286 0 14.628571 11.702857 26.331429 26.331429 26.331428s26.331429-11.702857 26.331428-26.331428c1.462857-14.628571-11.702857-27.794286-26.331428-27.794286z" fill="#141515"></path></g></svg>